<svg xmlns="http://www.w3.org/2000/svg" xmlns:xlink="http://www.w3.org/1999/xlink" width="400" zoomAndPan="magnify" viewBox="0 0 300 144.749998" height="193" preserveAspectRatio="xMidYMid meet" version="1.0"><defs><clipPath id="f0da3d9230"><path d="M 0.257812 0 L 299.742188 0 L 299.742188 143.828125 L 0.257812 143.828125 Z M 0.257812 0 " clip-rule="nonzero"/></clipPath><clipPath id="36c845d7a4"><path d="M 17.480469 0 L 282.519531 0 C 287.089844 0 291.46875 1.8125 294.699219 5.042969 C 297.925781 8.273438 299.742188 12.652344 299.742188 17.21875 L 299.742188 126.605469 C 299.742188 131.175781 297.925781 135.554688 294.699219 138.785156 C 291.46875 142.011719 287.089844 143.828125 282.519531 143.828125 L 17.480469 143.828125 C 12.910156 143.828125 8.53125 142.011719 5.300781 138.785156 C 2.074219 135.554688 0.257812 131.175781 0.257812 126.605469 L 0.257812 17.21875 C 0.257812 12.652344 2.074219 8.273438 5.300781 5.042969 C 8.53125 1.8125 12.910156 0 17.480469 0 Z M 17.480469 0 " clip-rule="nonzero"/></clipPath><clipPath id="2036618052"><path d="M 69.824219 32.824219 L 230.175781 32.824219 L 230.175781 49.75 L 69.824219 49.75 Z M 69.824219 32.824219 " clip-rule="nonzero"/></clipPath><clipPath id="1e8b1659ea"><path d="M 69.824219 63.453125 L 230.175781 63.453125 L 230.175781 80.375 L 69.824219 80.375 Z M 69.824219 63.453125 " clip-rule="nonzero"/></clipPath><clipPath id="edcd4ea13d"><path d="M 69.824219 94.078125 L 230.175781 94.078125 L 230.175781 111 L 69.824219 111 Z M 69.824219 94.078125 " clip-rule="nonzero"/></clipPath></defs><g clip-path="url(#f0da3d9230)"><g clip-path="url(#36c845d7a4)"><path fill="#5271ff" d="M 0.257812 0 L 299.710938 0 L 299.710938 143.828125 L 0.257812 143.828125 Z M 0.257812 0 " fill-opacity="1" fill-rule="nonzero"/></g></g><g clip-path="url(#2036618052)"><path fill="#ffffff" d="M 69.824219 32.824219 L 230.144531 32.824219 L 230.144531 49.75 L 69.824219 49.75 Z M 69.824219 32.824219 " fill-opacity="1" fill-rule="nonzero"/></g><g clip-path="url(#1e8b1659ea)"><path fill="#ffffff" d="M 69.824219 63.453125 L 230.144531 63.453125 L 230.144531 80.375 L 69.824219 80.375 Z M 69.824219 63.453125 " fill-opacity="1" fill-rule="nonzero"/></g><g clip-path="url(#edcd4ea13d)"><path fill="#ffffff" d="M 69.824219 94.078125 L 230.144531 94.078125 L 230.144531 111 L 69.824219 111 Z M 69.824219 94.078125 " fill-opacity="1" fill-rule="nonzero"/></g></svg>