<svg xmlns="http://www.w3.org/2000/svg" xmlns:xlink="http://www.w3.org/1999/xlink" width="412" zoomAndPan="magnify" viewBox="0 0 309 323.999988" height="432" preserveAspectRatio="xMidYMid meet" version="1.0"><defs><clipPath id="66a1ac0e05"><path d="M 0 0 L 308.621094 0 L 308.621094 324 L 0 324 Z M 0 0 " clip-rule="nonzero"/></clipPath><clipPath id="b1a58c5e47"><path d="M 75 0 L 233.621094 0 C 275.042969 0 308.621094 33.578125 308.621094 75 L 308.621094 248.671875 C 308.621094 290.09375 275.042969 323.671875 233.621094 323.671875 L 75 323.671875 C 33.578125 323.671875 0 290.09375 0 248.671875 L 0 75 C 0 33.578125 33.578125 0 75 0 Z M 75 0 " clip-rule="nonzero"/></clipPath><clipPath id="e348ff5749"><path d="M 70.421875 62.792969 L 90.246094 62.792969 L 90.246094 223.425781 L 70.421875 223.425781 Z M 70.421875 62.792969 " clip-rule="nonzero"/></clipPath><clipPath id="a638a3be38"><path d="M 32.6875 226.730469 L 275.960938 226.730469 L 275.960938 246.558594 L 32.6875 246.558594 Z M 32.6875 226.730469 " clip-rule="nonzero"/></clipPath><clipPath id="93355dad07"><path d="M 42.601562 226.730469 L 266.019531 226.730469 C 268.648438 226.730469 271.171875 227.777344 273.03125 229.632812 C 274.890625 231.492188 275.933594 234.015625 275.933594 236.644531 C 275.933594 239.273438 274.890625 241.796875 273.03125 243.65625 C 271.171875 245.515625 268.648438 246.558594 266.019531 246.558594 L 42.601562 246.558594 C 39.972656 246.558594 37.449219 245.515625 35.589844 243.65625 C 33.730469 241.796875 32.6875 239.273438 32.6875 236.644531 C 32.6875 234.015625 33.730469 231.492188 35.589844 229.632812 C 37.449219 227.777344 39.972656 226.730469 42.601562 226.730469 Z M 42.601562 226.730469 " clip-rule="nonzero"/></clipPath><clipPath id="768a4e93fb"><path d="M 256.65625 104.710938 L 275.925781 104.710938 L 275.925781 246.148438 L 256.65625 246.148438 Z M 256.65625 104.710938 " clip-rule="nonzero"/></clipPath><clipPath id="2083b29832"><path d="M 275.925781 114.347656 L 275.925781 236.5 C 275.925781 239.054688 274.910156 241.503906 273.105469 243.3125 C 271.296875 245.117188 268.847656 246.132812 266.292969 246.132812 C 263.738281 246.132812 261.285156 245.117188 259.480469 243.3125 C 257.671875 241.503906 256.65625 239.054688 256.65625 236.5 L 256.65625 114.347656 C 256.65625 111.792969 257.671875 109.339844 259.480469 107.535156 C 261.285156 105.726562 263.738281 104.710938 266.292969 104.710938 C 268.847656 104.710938 271.296875 105.726562 273.105469 107.535156 C 274.910156 109.339844 275.925781 111.792969 275.925781 114.347656 Z M 275.925781 114.347656 " clip-rule="nonzero"/></clipPath><clipPath id="da264942f6"><path d="M 29.019531 104.707031 L 48.847656 104.707031 L 48.847656 246.136719 L 29.019531 246.136719 Z M 29.019531 104.707031 " clip-rule="nonzero"/></clipPath><clipPath id="f98aab7455"><path d="M 48.847656 114.621094 L 48.847656 236.214844 C 48.847656 238.84375 47.804688 241.367188 45.945312 243.226562 C 44.085938 245.085938 41.5625 246.128906 38.933594 246.128906 C 36.304688 246.128906 33.785156 245.085938 31.925781 243.226562 C 30.066406 241.367188 29.019531 238.84375 29.019531 236.214844 L 29.019531 114.621094 C 29.019531 111.992188 30.066406 109.472656 31.925781 107.613281 C 33.785156 105.753906 36.304688 104.707031 38.933594 104.707031 C 41.5625 104.707031 44.085938 105.753906 45.945312 107.613281 C 47.804688 109.472656 48.847656 111.992188 48.847656 114.621094 Z M 48.847656 114.621094 " clip-rule="nonzero"/></clipPath><clipPath id="ea53086e4d"><path d="M 111.996094 62.792969 L 131.824219 62.792969 L 131.824219 223.425781 L 111.996094 223.425781 Z M 111.996094 62.792969 " clip-rule="nonzero"/></clipPath><clipPath id="f27a24118c"><path d="M 137 76 L 239 76 L 239 224 L 137 224 Z M 137 76 " clip-rule="nonzero"/></clipPath><clipPath id="a73caed832"><path d="M 154.023438 76.492188 L 238.054688 213.390625 L 221.703125 223.429688 L 137.671875 86.53125 Z M 154.023438 76.492188 " clip-rule="nonzero"/></clipPath></defs><g clip-path="url(#66a1ac0e05)"><g clip-path="url(#b1a58c5e47)"><path fill="#5271ff" d="M 0 0 L 308.621094 0 L 308.621094 323.085938 L 0 323.085938 Z M 0 0 " fill-opacity="1" fill-rule="nonzero"/></g></g><g clip-path="url(#e348ff5749)"><path fill="#ffffff" d="M 90.246094 62.792969 L 90.246094 223.414062 L 70.421875 223.414062 L 70.421875 62.792969 Z M 90.246094 62.792969 " fill-opacity="1" fill-rule="nonzero"/></g><g clip-path="url(#a638a3be38)"><g clip-path="url(#93355dad07)"><path fill="#ffffff" d="M 32.6875 226.730469 L 275.960938 226.730469 L 275.960938 246.558594 L 32.6875 246.558594 Z M 32.6875 226.730469 " fill-opacity="1" fill-rule="nonzero"/></g></g><g clip-path="url(#768a4e93fb)"><g clip-path="url(#2083b29832)"><path fill="#ffffff" d="M 275.925781 104.710938 L 275.925781 246.148438 L 256.65625 246.148438 L 256.65625 104.710938 Z M 275.925781 104.710938 " fill-opacity="1" fill-rule="nonzero"/></g></g><g clip-path="url(#da264942f6)"><g clip-path="url(#f98aab7455)"><path fill="#ffffff" d="M 48.847656 104.707031 L 48.847656 246.136719 L 29.019531 246.136719 L 29.019531 104.707031 Z M 48.847656 104.707031 " fill-opacity="1" fill-rule="nonzero"/></g></g><g clip-path="url(#ea53086e4d)"><path fill="#ffffff" d="M 131.824219 62.792969 L 131.824219 223.429688 L 111.996094 223.429688 L 111.996094 62.792969 Z M 131.824219 62.792969 " fill-opacity="1" fill-rule="nonzero"/></g><g clip-path="url(#f27a24118c)"><g clip-path="url(#a73caed832)"><path fill="#ffffff" d="M 154.023438 76.492188 L 238.054688 213.390625 L 221.699219 223.425781 L 137.671875 86.53125 Z M 154.023438 76.492188 " fill-opacity="1" fill-rule="nonzero"/></g></g></svg>